HIERARCHY
ROOT Hips
{
  OFFSET -69.4423 88.0299 51.6846
  CHANNELS 6 Xposition Yposition Zposition Zrotation Xrotation Yrotation
  JOINT Spine
  {
    OFFSET 12.0259 -0.162853 1.93176e-005
    CHANNELS 3 Zrotation Xrotation Yrotation
    JOINT Spine1
    {
      OFFSET 15.3169 -0.0121909 0
      CHANNELS 3 Zrotation Xrotation Yrotation
      JOINT Spine2
      {
        OFFSET 15.3176 -0.0121922 0
        CHANNELS 3 Zrotation Xrotation Yrotation
        JOINT Neck
        {
          OFFSET 19.9142 1.56236 0
          CHANNELS 3 Zrotation Xrotation Yrotation
          JOINT Head
          {
            OFFSET 6.92646 0 0
            CHANNELS 3 Zrotation Xrotation Yrotation
            End Site
            {
              OFFSET 20.7666 0 0
            }
          }
          JOINT LeftShoulder
          {
            OFFSET -4.94072 -1.14703 8.14416
            CHANNELS 3 Zrotation Xrotation Yrotation
            JOINT LeftArm
            {
              OFFSET 14.108 0 -2.74767e-005
              CHANNELS 3 Zrotation Xrotation Yrotation
              JOINT LeftForeArm
              {
                OFFSET 28.5802 -0.0783412 -0.0284884
                CHANNELS 3 Zrotation Xrotation Yrotation
                JOINT LeftHand
                {
                  OFFSET 27.092 0 0
                  CHANNELS 3 Zrotation Xrotation Yrotation
                  End Site
                  {
                    OFFSET 9.55928 -0.186424 0.145352
                  }
                }
              }
            }
          }
          JOINT RightShoulder
          {
            OFFSET -7.15748 -1.33027 -6.24935
            CHANNELS 3 Zrotation Xrotation Yrotation
            JOINT RightArm
            {
              OFFSET 14.108 0 1.82997e-005
              CHANNELS 3 Zrotation Xrotation Yrotation
              JOINT RightForeArm
              {
                OFFSET 28.5802 -0.0707221 2.30684e-005
                CHANNELS 3 Zrotation Xrotation Yrotation
                JOINT RightHand
                {
                  OFFSET 27.092 0 -1.30073e-005
                  CHANNELS 3 Zrotation Xrotation Yrotation
                  End Site
                  {
                    OFFSET 9.55929 -0.186417 -0.145354
                  }
                }
              }
            }
          }
        }
      }
    }
  }
  JOINT LeftUpLeg
  {
    OFFSET 0.00499725 -0.534999 8.837
    CHANNELS 3 Zrotation Xrotation Yrotation
    JOINT LeftLeg
    {
      OFFSET 39.9035 -0.00124594 0.000252775
      CHANNELS 3 Zrotation Xrotation Yrotation
      JOINT LeftFoot
      {
        OFFSET 39.6689 0 0
        CHANNELS 3 Zrotation Xrotation Yrotation
        JOINT LeftToe
        {
          OFFSET 10.1624 13.6296 0
          CHANNELS 3 Zrotation Xrotation Yrotation
          End Site
          {
            OFFSET 8.38147 0 0
          }
        }
      }
    }
  }
  JOINT RightUpLeg
  {
    OFFSET 0.00499725 -0.535 -8.837
    CHANNELS 3 Zrotation Xrotation Yrotation
    JOINT RightLeg
    {
      OFFSET 39.9036 -0.000268477 0.000106433
      CHANNELS 3 Zrotation Xrotation Yrotation
      JOINT RightFoot
      {
        OFFSET 39.6689 1.17892e-005 0
        CHANNELS 3 Zrotation Xrotation Yrotation
        JOINT RightToe
        {
          OFFSET 10.1624 13.6296 0
          CHANNELS 3 Zrotation Xrotation Yrotation
          End Site
          {
            OFFSET 8.38147 0 0
          }
        }
      }
    }
  }
}
MOTION
Frames:	15
Frame Time:	0.0333333
23.5777 89.72 30.2208 90.6605 40.4181 2.83777 1.14531 -0.209976 0.436674 2.29222 -0.410695 0.877621 2.2922 -0.410703 0.877607 -14.7666 -5.13693 -15.0304 45.4689 -4.09288 20.532 -168.327 -7.77437 -97.52 -19.6374 6.32072 79.3889 -29.0329 3.609 -17.7877 15.8312 -87.7732 18.2419 -168.339 -9.78626 71.2546 -4.47543 -7.19266 -85.7757 -20.6526 -2.27854 12.94 1.95251 79.528 -1.76977 3.40084 1.68854 -178.131 -36.8868 1.06083 -0.0333448 -29.9398 13.3321 6.65048 90 6.36111e-015 1.19271e-014 -17.1248 -8.89256 -175.938 -24.3546 -0.444449 0.358191 -5.52563 5.69565 1.63055 90 7.95139e-016 -0 
20.8882 89.7552 31.4185 90.4554 37.3786 1.79774 1.18452 0.131506 0.610445 2.36757 0.276025 1.21819 2.36755 0.276035 1.21817 -14.3956 -5.31073 -14.6187 44.9598 -4.43707 20.4167 -168.717 -7.82333 -97.1581 -21.6297 7.48402 80.5843 -28.8135 3.53405 -17.6713 9.20671 -86.6431 11.6031 -168.663 -9.78838 71.6343 -7.84752 -6.76934 -85.568 -21.4653 -2.44193 13.4008 2.08845 80.2915 -1.93013 -2.19051 3.41955 -176.286 -46.1684 0.994995 0.136499 -30.0694 16.1362 8.34258 90 -2.54444e-014 -2.92213e-014 -14.0517 -8.25386 -173.715 -23.1211 -0.536177 0.315824 -4.47769 4.02252 1.07358 90 -3.49861e-014 -1.27222e-014 
18.3101 89.8978 32.6508 90.2295 34.5793 1.46342 1.19776 0.409445 0.632717 2.39103 0.832504 1.25694 2.39102 0.832512 1.25693 -13.7444 -5.43326 -14.4528 44.5842 -4.45409 20.5945 -169.404 -7.82581 -97.0573 -23.0218 8.43548 81.8735 -28.2924 3.40538 -17.3995 6.69143 -85.2811 9.05553 -169.28 -9.74095 71.7235 -9.78321 -5.67437 -85.2803 -22.2097 -2.59385 13.8062 1.89731 79.8063 -1.71873 -6.92115 3.35298 -175.018 -53.3128 0.823738 0.20634 -23.1631 12.7047 4.85048 90 -9.54166e-015 -7.15625e-015 -11.257 -7.09655 -172.521 -22.104 -0.608262 0.28226 -3.21925 2.54471 0.578347 90 -7.95139e-015 -1.27222e-014 
15.8554 89.817 33.8226 89.8385 32.192 1.10091 1.27117 0.515868 0.682904 2.53627 1.0472 1.35443 2.53627 1.0472 1.35442 -13.9522 -5.462 -14.6882 45.2784 -4.37296 20.9184 -169.277 -8.01021 -97.1987 -23.2519 8.6944 83.1966 -27.278 3.20607 -16.8928 7.84382 -84.4913 10.1763 -169.098 -9.88515 71.5292 -12.2798 -4.47683 -84.9612 -23.5089 -2.88858 14.5412 2.14989 80.4442 -2.03759 -11.1364 2.83646 -174.013 -57.7361 0.715318 0.186129 -17.0972 10.23 2.81928 90 0 1.59028e-015 -8.76345 -5.74235 -171.349 -21.6286 -0.665473 0.244766 -1.89887 1.74749 0.27098 90 0 9.54166e-015 
13.4755 89.6353 34.9682 89.7498 29.073 0.825738 1.30844 0.808731 0.630658 2.60833 1.63219 1.24303 2.60832 1.63216 1.24301 -14.0911 -5.64641 -15.1278 45.9872 -4.29411 21.8187 -169.282 -8.38967 -97.5429 -22.3377 8.88163 84.081 -26.8465 3.111 -16.6862 4.99269 -84.4503 7.38361 -169.051 -10.2291 71.1838 -13.6312 -2.97713 -84.9178 -24.8998 -3.21606 15.2992 2.59651 81.8314 -2.51115 -14.8343 2.56548 -173.478 -59.26 0.646296 0.102876 -12.3952 8.08281 1.61345 90 -9.54166e-015 -4.77083e-015 -6.9614 -4.59451 -170.749 -21.8212 -0.714023 0.192888 -0.440354 -0.0193893 -0.198218 90 1.27222e-014 1.59028e-014 
11.1189 89.431 36.0562 89.6721 25.9724 0.336511 1.26626 1.05552 0.671406 2.52071 2.126 1.3198 2.52071 2.126 1.3198 -13.6231 -5.52982 -15.1118 45.8458 -4.0301 21.6962 -169.763 -8.23157 -97.6004 -22.7565 9.66168 85.4994 -26.1979 2.98486 -16.356 6.66836 -85.0963 9.11674 -169.468 -9.9979 71.1257 -14.1764 -1.59787 -84.9902 -26.2889 -3.54919 16.0342 2.60388 82.7422 -2.52043 -17.7005 0.806652 -173.545 -58.3454 0.622516 -0.0187921 -7.4683 6.25397 0.846424 90 1.27222e-014 3.18055e-015 -5.32919 -2.61102 -170.008 -22.0829 -0.749266 0.146889 0.813511 -1.00594 -0.44649 90 -1.66979e-014 -1.90833e-014 
8.85298 89.0369 37.1822 89.6408 23.3644 -0.0246798 1.30159 1.29528 0.657809 2.58922 2.60555 1.28665 2.58921 2.60558 1.28664 -13.5916 -5.66062 -15.1268 45.3929 -4.24293 21.8867 -169.843 -8.40205 -97.5655 -23.6359 9.94741 86.0782 -25.4214 2.82171 -15.9574 6.90102 -85.0994 9.3059 -169.527 -10.1442 71.1894 -16.9726 -1.08905 -84.6949 -28.657 -4.16163 17.2784 3.68289 84.7183 -3.64811 -20.0768 -0.992131 -173.655 -55.2171 0.623917 -0.183577 -2.95294 4.99261 0.505704 90 1.74931e-014 9.54166e-015 -4.37642 -0.857161 -169.513 -23.4748 -0.767664 0.0889079 2.57356 -1.17337 -0.571873 90 7.95139e-016 3.18055e-015 
6.58498 88.7311 38.3665 89.7267 20.9913 -0.0762142 1.33702 1.38491 0.60746 2.66047 2.78403 1.1831 2.66045 2.78403 1.18309 -13.7328 -5.51484 -15.0118 44.9269 -4.1381 21.6008 -169.671 -8.30964 -97.4069 -23.2666 9.75464 86.7906 -24.5425 2.6748 -15.5246 6.48904 -84.0309 8.90782 -169.332 -10.0241 71.348 -19.7484 -0.758629 -84.1084 -30.8758 -4.77529 18.4087 4.69846 85.74 -4.64724 -21.4921 -2.51962 -174.335 -49.3007 0.661747 -0.409638 -0.976149 3.53646 0.386568 90 1.11319e-014 9.54166e-015 -3.2224 0.70246 -169.629 -24.3959 -0.778114 0.049474 4.66047 -1.61683 -0.738029 90 7.55382e-015 1.59028e-014 
4.30275 88.5413 39.3959 90.3036 18.3936 -0.410695 1.28479 1.5876 0.573815 2.55511 3.18828 1.11266 2.55509 3.18828 1.11264 -14.0729 -5.47719 -14.7512 44.7022 -4.38106 21.1794 -169.31 -8.33056 -97.0664 -22.6018 9.59181 87.5421 -23.7754 2.53958 -15.1501 4.89776 -83.0106 7.32535 -168.942 -9.99737 71.6827 -21.9082 -0.314284 -83.4855 -32.6619 -5.28991 19.3013 7.43809 87.4201 -7.41128 -22.2671 -3.70285 -174.531 -41.0023 0.704807 -0.721898 -1.06103 2.38956 0.361051 90 3.08116e-015 3.18055e-015 -2.1173 2.41007 -169.741 -24.3475 -0.788485 0.0305905 5.54176 -2.76716 -0.886501 90 -3.81667e-014 -1.90833e-014 
1.96112 88.4656 40.4774 90.6513 16.3954 -0.55209 1.25156 1.63842 0.594409 2.48761 3.28939 1.15374 2.4876 3.2894 1.15372 -14.1291 -5.2423 -14.7517 44.2919 -4.15303 20.7727 -169.212 -8.12656 -97.0487 -22.6753 9.39052 88.114 -22.9378 2.39914 -14.7342 5.72227 -83.2765 8.17292 -168.821 -9.78895 71.6382 -22.6165 0.96717 -82.8953 -33.0552 -5.39434 19.4779 5.59431 86.9704 -5.52875 -21.8474 -6.38885 -175.105 -31.0677 0.719447 -1.07726 -3.16472 0.13311 0.0245794 90 -4.77083e-015 -0 -0.232007 3.0149 -170.189 -23.4078 -0.79832 0.0264598 5.80739 -4.24879 -1.03204 90 -8.94531e-015 -3.18055e-015 
-0.50176 88.2609 41.3791 91.1112 13.9027 -1.01256 1.22251 1.81999 0.60399 2.42761 3.65288 1.17002 2.4276 3.65287 1.17 -14.3194 -5.16374 -14.5867 43.967 -4.09645 20.6268 -168.996 -8.08515 -96.8439 -21.9325 9.17067 88.604 -22.4973 2.33166 -14.5261 4.65929 -82.1886 7.09544 -168.573 -9.7155 71.8165 -24.1366 1.69696 -82.4131 -33.5485 -5.56026 19.7447 9.94301 87.9825 -9.9081 -21.3917 -6.42401 -174.46 -21.4504 0.635132 -1.42389 -5.47595 -0.817008 -0.245389 90 -7.15625e-015 -6.36111e-015 1.5811 3.51849 -170.347 -22.5019 -0.805846 0.0264498 6.20751 -5.34048 -1.1282 90 3.77691e-015 -0 
-3.04534 88.1626 42.3721 91.3812 11.6883 -1.0519 1.24188 1.92949 0.579187 2.46629 3.87147 1.11747 2.46627 3.87144 1.11746 -14.9766 -5.35533 -14.8652 44.3678 -4.43877 21.0826 -168.437 -8.50051 -96.9553 -22.4615 9.10803 88.6433 -22.1268 2.26545 -14.3284 4.93219 -82.1488 7.36475 -167.992 -10.13 71.6639 -24.2259 2.78291 -81.9292 -33.2479 -5.46616 19.586 6.9755 87.1142 -6.92306 -21.3389 -4.4684 -174.162 -14.4821 0.539015 -1.66037 -4.88197 0.674227 0.203847 90 5.56597e-015 4.77083e-015 3.61119 4.08784 -171.057 -21.5158 -0.816495 0.0252843 5.92398 -6.59117 -1.23255 90 -4.77083e-015 -6.36111e-015 
-5.63277 87.9994 43.3985 91.5552 10.0932 -1.6275 1.23634 1.91542 0.675857 2.45109 3.84534 1.31144 2.45106 3.84533 1.31143 -15.1918 -5.1951 -14.6374 44.2908 -4.43216 20.5794 -168.152 -8.33454 -96.7071 -22.235 8.99419 88.6338 -21.8134 2.21816 -14.1666 4.86722 -81.8591 7.30547 -167.692 -9.9544 71.8655 -24.6637 3.40131 -81.493 -32.5964 -5.26588 19.2579 6.57006 86.9346 -6.51616 -21.7452 -2.07362 -173.818 -11.3151 0.485474 -1.71621 -3.59494 3.65143 0.907189 90 -7.95139e-015 -4.77083e-015 5.41724 4.48412 -171.283 -20.882 -0.824736 0.0162472 5.3483 -8.15495 -1.36332 90 -2.56432e-014 -3.49861e-014 
-8.32859 87.9141 44.4122 91.553 9.43091 -1.83589 1.25494 1.6996 0.707348 2.49044 3.41467 1.37849 2.49043 3.41465 1.37848 -15.3166 -4.999 -14.3617 44.251 -4.14746 20.2872 -167.932 -8.09018 -96.4316 -21.7544 8.80523 88.3519 -21.4595 2.16536 -13.9772 4.55307 -81.29 6.99408 -167.473 -9.72277 72.0795 -25.0141 3.68191 -81.584 -31.8573 -5.05918 18.909 13.0943 88.27 -13.04 -21.1368 -4.1946 -174.442 -11.1079 0.522554 -1.70279 -5.18748 4.15462 0.986722 90 5.56597e-015 6.75868e-015 6.80124 5.37215 -171.571 -21.3536 -0.824901 0.00149516 4.48638 -8.42563 -1.43868 90 -3.62782e-015 3.18055e-015 
-11.2687 87.8413 45.4914 91.0161 7.99339 -1.53288 1.38674 1.74663 0.664644 2.75506 3.50927 1.28784 2.75505 3.50926 1.28783 -15.3547 -4.97205 -14.3668 44.1474 -4.06591 20.3452 -167.848 -8.04621 -96.3854 -21.6163 8.2967 87.8745 -20.8704 2.07262 -13.6685 4.52794 -80.7537 6.94774 -167.433 -9.71361 72.0216 -23.7013 3.65747 -81.7922 -31.0891 -4.83548 18.5188 8.25611 87.3533 -8.19758 -19.7491 -4.20589 -175.293 -12.4829 0.601124 -1.64463 -6.81106 5.84491 1.36503 90 3.18055e-015 4.77083e-015 7.91005 6.62203 -172.286 -23.4479 -0.81307 -0.0426455 3.13284 -8.57128 -1.54179 90 7.55382e-015 -0 
